<svg width="134" height="83" viewBox="0 0 134 83" fill="none" xmlns="http://www.w3.org/2000/svg">
<path d="M29.7012 27.2129C29.1387 27.8105 28.6055 28.3906 28.1016 28.9531C27.8086 29.293 27.5625 29.5801 27.3633 29.8145C27.1641 30.0371 26.9648 30.2715 26.7656 30.5176C26.5664 30.752 26.373 30.9863 26.1855 31.2207C26.0098 31.4434 25.8574 31.6484 25.7285 31.8359C25.459 32.1992 25.2363 32.5684 25.0605 32.9434C24.8848 33.3184 24.7383 33.6641 24.6211 33.9805C24.4922 34.332 24.3926 34.6777 24.3223 35.0176H19.0664L29.7012 27.2129ZM15.7617 9.37109L3.79102 18.1602C3.88477 18.0547 4.11328 17.7969 4.47656 17.3867C4.83984 16.9766 5.25 16.5137 5.70703 15.998C6.16406 15.4707 6.62109 14.9375 7.07812 14.3984C7.53516 13.8477 7.89844 13.3789 8.16797 12.9922C8.44922 12.5703 8.68945 12.1484 8.88867 11.7266C9.09961 11.3047 9.26367 10.9238 9.38086 10.584C9.5332 10.1855 9.65625 9.79883 9.75 9.42383L9.76758 9.37109H15.7617ZM13.248 37.8125C13.7637 37.332 14.1973 36.8984 14.5488 36.5117C14.7715 36.2773 14.9297 36.0898 15.0234 35.9492C15.1289 35.8086 15.2109 35.6738 15.2695 35.5449C15.3281 35.416 15.3516 35.2988 15.3398 35.1934C15.3398 35.0996 15.2871 35.0352 15.1816 35H3.49219L4.35352 31.5371L20.9473 14.3984H10.5938L25.834 3.20117C24.6738 4.23242 23.6895 5.18164 22.8809 6.04883C22.3887 6.55273 22.0195 6.96289 21.7734 7.2793C21.5273 7.5957 21.3281 7.89453 21.1758 8.17578C21.0234 8.45703 20.9355 8.70898 20.9121 8.93164C20.9004 9.14258 21 9.28906 21.2109 9.37109H30.5273L29.7012 12.7461L13.1777 29.9727H23.9531L13.248 37.8125ZM59.1797 4.80078L35.9941 21.834C36.3223 21.5996 36.6504 21.3301 36.9785 21.0254C37.3066 20.709 37.6172 20.3984 37.9102 20.0938C38.2031 19.7773 38.4609 19.4844 38.6836 19.2148C38.918 18.9453 39.0938 18.7285 39.2109 18.5645L44.9238 9.47656H44.9414L44.959 9.44141H47.3672C48.375 9.44141 49.418 9.31836 50.4961 9.07227C51.5859 8.82617 52.5703 8.45703 53.4492 7.96484C54.0703 7.63672 54.6914 7.30273 55.3125 6.96289C55.9453 6.61133 56.5195 6.28906 57.0352 5.99609C57.5625 5.70312 58.0137 5.45117 58.3887 5.24023C58.7754 5.0293 59.0391 4.88281 59.1797 4.80078ZM53.168 24.752C53.1914 24.9395 53.2266 25.1211 53.2734 25.2969C53.3203 25.4609 53.3906 25.6074 53.4844 25.7363C53.5781 25.8652 53.6953 25.9707 53.8359 26.0527C53.9766 26.123 54.1523 26.1582 54.3633 26.1582C54.6328 26.1582 54.9609 26.0879 55.3477 25.9473C55.7461 25.8066 56.2266 25.5664 56.7891 25.2266L44.6602 34.1211C45.0234 33.8281 45.3457 33.4824 45.627 33.084C45.9199 32.6738 46.166 32.2754 46.3652 31.8887C46.5762 31.502 46.7461 31.1562 46.875 30.8516C47.0039 30.5469 47.0918 30.3359 47.1387 30.2188H38.7188L36.0469 34.9121H28.9453L32.8301 28.7246C33.2051 28.0801 33.416 27.5879 33.4629 27.248C33.5215 26.8965 33.3867 26.7207 33.0586 26.7207C32.8594 26.7207 32.5254 26.8145 32.0566 27.002C31.5996 27.1895 31.1133 27.4062 30.5977 27.6523C30.082 27.8867 29.5957 28.127 29.1387 28.373C28.6699 28.6074 28.3301 28.7773 28.1191 28.8828L36.7324 22.5195L51.3926 11.7617L53.1504 24.5938L53.168 24.6641C53.168 24.7109 53.168 24.7402 53.168 24.752ZM41.5664 25.2266H46.7168L46.1191 17.2285L41.5664 25.2266ZM53.7129 28.7246L55.8047 27.1953C55.5938 27.4297 55.3711 27.6934 55.1367 27.9863C54.9141 28.2793 54.709 28.5898 54.5215 28.918C54.3457 29.2461 54.2051 29.5918 54.0996 29.9551C54.0059 30.3066 53.9824 30.6523 54.0293 30.9922C54.041 31.0508 54.0469 31.127 54.0469 31.2207L54.5566 34.9121H48.3516C48.1992 34.9355 47.8711 35.0059 47.3672 35.123C46.8633 35.2402 46.1953 35.4746 45.3633 35.8262C44.5312 36.1895 43.5352 36.6934 42.375 37.3379C41.2148 37.9941 39.9023 38.8613 38.4375 39.9395L47.332 33.4004V33.3828L53.7129 28.707V28.7246ZM84.3516 13.4141C84.9023 14.7734 84.9609 16.3086 84.5273 18.0195C84.1758 19.4609 83.584 20.709 82.752 21.7637C81.9199 22.8066 80.9297 23.668 79.7812 24.3477C78.6445 25.0273 77.4023 25.5312 76.0547 25.8594C74.707 26.1758 73.3418 26.334 71.959 26.334H70.3418C70.1777 26.334 69.9844 26.3516 69.7617 26.3867C69.5391 26.4219 69.3281 26.4805 69.1289 26.5625L59.4785 33.6289L62.2734 22.291C62.2734 22.1855 62.2266 22.0508 62.1328 21.8867C62.0508 21.7227 61.8516 21.6406 61.5352 21.6406C61.3945 21.6406 61.2246 21.6699 61.0254 21.7285C60.8379 21.7754 60.6094 21.8574 60.3398 21.9746C59.8125 22.2207 59.3145 22.4551 58.8457 22.6777C58.3887 22.8887 57.9844 23.0762 57.6328 23.2402C57.2227 23.4277 56.8477 23.6035 56.5078 23.7676L76.3711 9.17773C77.168 9.18945 77.9707 9.26562 78.7793 9.40625C79.5879 9.54688 80.3496 9.78125 81.0645 10.1094C81.791 10.4375 82.4414 10.8711 83.0156 11.4102C83.5898 11.9492 84.0352 12.6172 84.3516 13.4141ZM77.7246 17.9668C78.0059 16.8535 77.9121 15.9512 77.4434 15.2598C76.998 14.6035 76.2246 14.2637 75.123 14.2402H70.9922L69.2695 21.2539H73.2422C74.3672 21.2539 75.3223 20.9902 76.1074 20.4629C76.9043 19.9238 77.4434 19.0918 77.7246 17.9668ZM81.2754 4.32617L63.4863 17.3867L65.5254 9.17773H70.2715C70.5762 9.1543 70.9277 9.11328 71.3262 9.05469C71.7363 8.98438 72.1641 8.89063 72.6094 8.77344C73.0664 8.65625 73.5352 8.50977 74.0156 8.33398C74.5078 8.1582 74.9883 7.93555 75.457 7.66602C76.1719 7.2793 76.875 6.89258 77.5664 6.50586C78.2578 6.10742 78.8789 5.74414 79.4297 5.41602C80.0742 5.04102 80.6895 4.67773 81.2754 4.32617ZM52.4121 40.0625L67.3184 29.1289L65.8594 35H62.1152C61.8105 35.0469 61.4355 35.1523 60.9902 35.3164C60.5449 35.4922 60.0645 35.6973 59.5488 35.9316C59.0332 36.1777 58.5 36.4473 57.9492 36.7402C57.3984 37.0449 56.8594 37.3555 56.332 37.6719C55.0898 38.3867 53.7832 39.1836 52.4121 40.0625ZM110.719 13.4141C111.27 14.7734 111.328 16.3086 110.895 18.0195C110.543 19.4609 109.951 20.709 109.119 21.7637C108.287 22.8066 107.297 23.668 106.148 24.3477C105.012 25.0273 103.77 25.5312 102.422 25.8594C101.074 26.1758 99.709 26.334 98.3262 26.334H96.709C96.5449 26.334 96.3516 26.3516 96.1289 26.3867C95.9062 26.4219 95.6953 26.4805 95.4961 26.5625L85.8457 33.6289L88.6406 22.291C88.6406 22.1855 88.5938 22.0508 88.5 21.8867C88.418 21.7227 88.2188 21.6406 87.9023 21.6406C87.7617 21.6406 87.5918 21.6699 87.3926 21.7285C87.2051 21.7754 86.9766 21.8574 86.707 21.9746C86.1797 22.2207 85.6816 22.4551 85.2129 22.6777C84.7559 22.8887 84.3516 23.0762 84 23.2402C83.5898 23.4277 83.2148 23.6035 82.875 23.7676L102.738 9.17773C103.535 9.18945 104.338 9.26562 105.146 9.40625C105.955 9.54688 106.717 9.78125 107.432 10.1094C108.158 10.4375 108.809 10.8711 109.383 11.4102C109.957 11.9492 110.402 12.6172 110.719 13.4141ZM104.092 17.9668C104.373 16.8535 104.279 15.9512 103.811 15.2598C103.365 14.6035 102.592 14.2637 101.49 14.2402H97.3594L95.6367 21.2539H99.6094C100.734 21.2539 101.689 20.9902 102.475 20.4629C103.271 19.9238 103.811 19.0918 104.092 17.9668ZM107.643 4.32617L89.8535 17.3867L91.8926 9.17773H96.6387C96.9434 9.1543 97.2949 9.11328 97.6934 9.05469C98.1035 8.98438 98.5312 8.89063 98.9766 8.77344C99.4336 8.65625 99.9023 8.50977 100.383 8.33398C100.875 8.1582 101.355 7.93555 101.824 7.66602C102.539 7.2793 103.242 6.89258 103.934 6.50586C104.625 6.10742 105.246 5.74414 105.797 5.41602C106.441 5.04102 107.057 4.67773 107.643 4.32617ZM78.7793 40.0625L93.6855 29.1289L92.2266 35H88.4824C88.1777 35.0469 87.8027 35.1523 87.3574 35.3164C86.9121 35.4922 86.4316 35.6973 85.916 35.9316C85.4004 36.1777 84.8672 36.4473 84.3164 36.7402C83.7656 37.0449 83.2266 37.3555 82.6992 37.6719C81.457 38.3867 80.1504 39.1836 78.7793 40.0625ZM35.625 43.6094C34.3359 44.7109 33.1875 45.7773 32.1797 46.8086C31.5703 47.4062 31.084 47.916 30.7207 48.3379C30.3691 48.748 30.041 49.1641 29.7363 49.5859C29.4434 50.0078 29.1973 50.4238 28.998 50.834C28.8105 51.2324 28.7168 51.5898 28.7168 51.9062C28.7402 52 28.7637 52.0879 28.7871 52.1699C28.8105 52.252 28.834 52.334 28.8574 52.416C29.1387 53.5645 29.168 54.8535 28.9453 56.2832L28.9277 56.4238H22.2305C22.3594 55.8262 22.4238 55.2637 22.4238 54.7363C22.4355 54.209 22.3652 53.7812 22.2129 53.4531L35.625 43.6094ZM4.8457 66.2324L12.1758 60.8535C11.8359 62.1895 11.6309 63.3496 11.5605 64.334C11.502 65.3066 11.5723 66.0742 11.7715 66.6367C11.8887 66.9648 12.0527 67.2344 12.2637 67.4453C12.4863 67.6562 12.7324 67.8262 13.002 67.9551C13.2715 68.0723 13.5645 68.1543 13.8809 68.2012C14.1973 68.248 14.5137 68.2715 14.8301 68.2715C14.9121 68.2715 15.0117 68.2715 15.1289 68.2715C15.2578 68.2598 15.375 68.2539 15.4805 68.2539C15.5977 68.2422 15.6973 68.2363 15.7793 68.2363C15.873 68.2246 15.9316 68.2188 15.9551 68.2188C16.2129 68.1953 16.5586 68.1367 16.9922 68.043C17.4258 67.9492 17.8828 67.7559 18.3633 67.4629C18.8555 67.1582 19.3418 66.7188 19.8223 66.1445C20.3027 65.5703 20.7188 64.7852 21.0703 63.7891H21.9668C22.2129 63.7891 22.4648 63.7656 22.7227 63.7188C22.957 63.6836 23.2031 63.6309 23.4609 63.5605C23.7305 63.4902 24 63.3789 24.2695 63.2266C24.5391 63.0859 24.7969 62.9395 25.043 62.7871C25.3008 62.6348 25.5293 62.4941 25.7285 62.3652C25.9629 62.2129 26.1797 62.0664 26.3789 61.9258L11.0859 73.1406C9.22266 72.7656 7.75781 71.9863 6.69141 70.8027C5.63672 69.6191 5.02148 68.0957 4.8457 66.2324ZM12.5449 59.3418L0.328125 68.3242C0.761719 67.9375 1.23633 67.4395 1.75195 66.8301C2.25586 66.2207 2.74219 65.5586 3.21094 64.8438C3.69141 64.1289 4.13086 63.3906 4.5293 62.6289C4.93945 61.8555 5.25586 61.1113 5.47852 60.3965L5.70703 59.4648C6.12891 57.7305 6.76758 56.1074 7.62305 54.5957C8.47852 53.0723 9.51562 51.748 10.7344 50.623C11.9531 49.4863 13.3418 48.5957 14.9004 47.9512C16.459 47.2949 18.1641 46.9668 20.0156 46.9668C20.6016 46.9668 21.1934 46.9961 21.791 47.0547C22.3887 47.1133 22.9688 47.2188 23.5312 47.3711C24.1055 47.5234 24.6562 47.7285 25.1836 47.9863C25.7227 48.2324 26.2266 48.5488 26.6953 48.9355L17.2207 55.8965C17.3496 55.7793 17.5254 55.6152 17.748 55.4043C17.9824 55.1816 18.2227 54.9414 18.4688 54.6836C18.7266 54.4258 18.9727 54.1562 19.207 53.875C19.4414 53.5938 19.623 53.3359 19.752 53.1016C19.8809 52.8555 19.9395 52.6445 19.9277 52.4688C19.9277 52.293 19.8105 52.1758 19.5762 52.1172C19.459 52.1055 19.3359 52.0996 19.207 52.0996C19.0898 52.0879 18.9668 52.082 18.8379 52.082C17.8535 52.082 17.0098 52.2988 16.3066 52.7324C15.6152 53.1543 15.0293 53.7051 14.5488 54.3848C14.0684 55.0645 13.6758 55.8262 13.3711 56.6699C13.0664 57.502 12.8086 58.3223 12.5977 59.1309L12.5449 59.3418ZM8.97656 75.9707L29.8594 60.625C29.7773 60.707 29.625 60.8711 29.4023 61.1172C29.1914 61.3633 28.9512 61.6387 28.6816 61.9434C28.4238 62.2363 28.1602 62.541 27.8906 62.8574C27.6328 63.1621 27.4277 63.4258 27.2754 63.6484C27.1934 63.7891 27.1113 63.9414 27.0293 64.1055C26.959 64.2695 26.8887 64.4277 26.8184 64.5801C26.3965 65.9043 25.793 67.082 25.0078 68.1133C24.2344 69.1445 23.332 70.0293 22.3008 70.7676C21.2695 71.4941 20.1387 72.0742 18.9082 72.5078C17.6777 72.9297 16.4004 73.1992 15.0762 73.3164C14.3965 73.4805 13.6992 73.709 12.9844 74.002C12.2695 74.2949 11.6133 74.5879 11.0156 74.8809C10.3242 75.2207 9.64453 75.584 8.97656 75.9707ZM54.6797 49.252C56.168 50.6348 56.5957 52.5859 55.9629 55.1055C55.5176 56.9102 54.7734 58.3984 53.7305 59.5703C52.6875 60.7305 51.3105 61.6738 49.5996 62.4004L51.5156 68.9922V68.9746L52.6934 73H45.3457L42.9023 64.0176H39.7031L38.8945 67.252C38.9062 67.3223 38.9355 67.3984 38.9824 67.4805C39.041 67.5508 39.1582 67.5859 39.334 67.5859C39.4746 67.5859 39.668 67.5508 39.9141 67.4805C40.1602 67.3984 40.4824 67.2695 40.8809 67.0938C40.8691 67.0938 40.7461 67.1816 40.5117 67.3574C40.2773 67.5215 39.9727 67.7441 39.5977 68.0254C39.2227 68.3066 38.7891 68.623 38.2969 68.9746C37.8164 69.3262 37.3242 69.6836 36.8203 70.0469C35.6484 70.9141 34.3125 71.8984 32.8125 73H30.7559L33.7617 60.8184C33.75 60.7129 33.6973 60.584 33.6035 60.4316C33.5215 60.2676 33.3281 60.1855 33.0234 60.1855C32.8828 60.1855 32.7129 60.209 32.5137 60.2559C32.3145 60.3027 32.0801 60.3848 31.8105 60.502C31.2832 60.7363 30.7852 60.9648 30.3164 61.1875C29.8594 61.4102 29.4551 61.6035 29.1035 61.7676C28.7051 61.9668 28.3359 62.1602 27.9961 62.3477L34.5879 57.5137V57.4961L48.5977 47.2129C49.125 47.2363 49.6641 47.2832 50.2148 47.3535C50.7656 47.4238 51.3047 47.541 51.832 47.7051C52.3594 47.8574 52.8633 48.0625 53.3438 48.3203C53.8359 48.5664 54.2812 48.877 54.6797 49.252ZM49.1426 55.5801C49.4004 54.5254 49.3125 53.7109 48.8789 53.1367C48.457 52.5508 47.6719 52.2578 46.5234 52.2578H42.6211L40.9688 58.9375H44.7832C45.9199 58.9375 46.8574 58.6562 47.5957 58.0938C48.3457 57.5195 48.8613 56.6816 49.1426 55.5801ZM52.7285 42.9414L34.957 55.9844L37.1367 47.1953H42.6387C42.9434 47.1602 43.2891 47.1133 43.6758 47.0547C44.0742 46.9844 44.4902 46.8965 44.9238 46.791C45.3691 46.6738 45.8203 46.5332 46.2773 46.3691C46.7461 46.1934 47.2031 45.9883 47.6484 45.7539C48.1289 45.4844 48.6094 45.2148 49.0898 44.9453C49.582 44.6758 50.0508 44.418 50.4961 44.1719C50.9414 43.9258 51.3516 43.6973 51.7266 43.4863C52.1133 43.2754 52.4473 43.0938 52.7285 42.9414ZM27.3105 78.3262L38.1387 70.3457L37.5234 73.0176C36.7266 73.1816 35.8066 73.4863 34.7637 73.9316C33.8262 74.3301 32.7422 74.8691 31.5117 75.5488C30.293 76.2285 28.8926 77.1543 27.3105 78.3262ZM84.5273 42.8008L61.3418 59.834C61.6699 59.5996 61.998 59.3301 62.3262 59.0254C62.6543 58.709 62.9648 58.3984 63.2578 58.0938C63.5508 57.7773 63.8086 57.4844 64.0312 57.2148C64.2656 56.9453 64.4414 56.7285 64.5586 56.5645L70.2715 47.4766H70.2891L70.3066 47.4414H72.7148C73.7227 47.4414 74.7656 47.3184 75.8438 47.0723C76.9336 46.8262 77.918 46.457 78.7969 45.9648C79.418 45.6367 80.0391 45.3027 80.6602 44.9629C81.293 44.6113 81.8672 44.2891 82.3828 43.9961C82.9102 43.7031 83.3613 43.4512 83.7363 43.2402C84.123 43.0293 84.3867 42.8828 84.5273 42.8008ZM78.5156 62.752C78.5391 62.9395 78.5742 63.1211 78.6211 63.2969C78.668 63.4609 78.7383 63.6074 78.832 63.7363C78.9258 63.8652 79.043 63.9707 79.1836 64.0527C79.3242 64.123 79.5 64.1582 79.7109 64.1582C79.9805 64.1582 80.3086 64.0879 80.6953 63.9473C81.0938 63.8066 81.5742 63.5664 82.1367 63.2266L70.0078 72.1211C70.3711 71.8281 70.6934 71.4824 70.9746 71.084C71.2676 70.6738 71.5137 70.2754 71.7129 69.8887C71.9238 69.502 72.0938 69.1562 72.2227 68.8516C72.3516 68.5469 72.4395 68.3359 72.4863 68.2188H64.0664L61.3945 72.9121H54.293L58.1777 66.7246C58.5527 66.0801 58.7637 65.5879 58.8105 65.248C58.8691 64.8965 58.7344 64.7207 58.4062 64.7207C58.207 64.7207 57.873 64.8145 57.4043 65.002C56.9473 65.1895 56.4609 65.4062 55.9453 65.6523C55.4297 65.8867 54.9434 66.127 54.4863 66.373C54.0176 66.6074 53.6777 66.7773 53.4668 66.8828L62.0801 60.5195L76.7402 49.7617L78.498 62.5938L78.5156 62.6641C78.5156 62.7109 78.5156 62.7402 78.5156 62.752ZM66.9141 63.2266H72.0645L71.4668 55.2285L66.9141 63.2266ZM79.0605 66.7246L81.1523 65.1953C80.9414 65.4297 80.7188 65.6934 80.4844 65.9863C80.2617 66.2793 80.0566 66.5898 79.8691 66.918C79.6934 67.2461 79.5527 67.5918 79.4473 67.9551C79.3535 68.3066 79.3301 68.6523 79.377 68.9922C79.3887 69.0508 79.3945 69.127 79.3945 69.2207L79.9043 72.9121H73.6992C73.5469 72.9355 73.2188 73.0059 72.7148 73.123C72.2109 73.2402 71.543 73.4746 70.7109 73.8262C69.8789 74.1895 68.8828 74.6934 67.7227 75.3379C66.5625 75.9941 65.25 76.8613 63.7852 77.9395L72.6797 71.4004V71.3828L79.0605 66.707V66.7246ZM93.8262 55.9492L85.5996 61.9785L89.2383 47.2832H105.621L95.2676 54.877C95.7949 54.4082 96.2109 53.9922 96.5156 53.6289C96.7148 53.418 96.8496 53.248 96.9199 53.1191C97.002 52.9902 97.0488 52.873 97.0605 52.7676C97.0723 52.6621 97.043 52.5742 96.9727 52.5039C96.9023 52.4336 96.7676 52.3984 96.5684 52.3984C96.3926 52.3984 96.2578 52.3809 96.1641 52.3457H94.7227L93.8262 55.9492ZM79.4121 78.3965L90.2402 70.416L89.625 73.0879C88.8281 73.2637 87.9141 73.5684 86.8828 74.002C85.9336 74.4004 84.8438 74.9395 83.6133 75.6191C82.3945 76.3105 80.9941 77.2363 79.4121 78.3965ZM100.4 52.3457L111.316 44.3301C111.164 44.4473 110.877 44.6875 110.455 45.0508C110.033 45.4141 109.576 45.8652 109.084 46.4043C108.592 46.9316 108.111 47.5234 107.643 48.1797C107.174 48.8359 106.816 49.5156 106.57 50.2188L106.043 52.3457H100.4ZM93.457 57.4609L93.3516 57.8828H103.635L102.387 62.9629H92.0859L91.0137 67.3223C91.0137 67.4043 91.0371 67.4863 91.084 67.5684C91.1426 67.6387 91.2598 67.6738 91.4355 67.6738C91.5879 67.6738 91.7871 67.6387 92.0332 67.5684C92.2793 67.4863 92.5957 67.3516 92.9824 67.1641C92.9824 67.1641 92.8652 67.252 92.6309 67.4277C92.3965 67.6035 92.0859 67.832 91.6992 68.1133C91.3242 68.3828 90.8906 68.6992 90.3984 69.0625C89.918 69.4141 89.4258 69.7715 88.9219 70.1348C87.7383 71.002 86.3965 71.9863 84.8965 73.0879H82.8574L84.2109 67.6387C84.2109 67.5918 84.2168 67.5449 84.2285 67.498C84.2402 67.4395 84.252 67.3809 84.2637 67.3223C84.3809 66.8652 84.3574 66.5547 84.1934 66.3906C84.0293 66.2266 83.7891 66.1445 83.4727 66.1445C83.1914 66.1445 82.8691 66.1973 82.5059 66.3027C82.1309 66.4082 81.7793 66.5254 81.4512 66.6543C81.1113 66.7832 80.8184 66.9121 80.5723 67.041C80.3145 67.1699 80.1445 67.252 80.0625 67.2871L93.457 57.4609ZM113.988 68.0254L126.416 58.8848C125.865 59.4941 125.332 60.0859 124.816 60.6602C124.523 61 124.277 61.2871 124.078 61.5215C123.879 61.7441 123.68 61.9785 123.48 62.2246C123.281 62.459 123.088 62.6934 122.9 62.9277C122.725 63.1504 122.572 63.3555 122.443 63.543C122.092 64.0469 121.811 64.5508 121.6 65.0547C121.4 65.5469 121.254 65.9453 121.16 66.25L119.49 72.9824H112.758L113.988 68.0254ZM117.398 47.1602L105.34 56.0195C105.445 55.9141 105.68 55.6562 106.043 55.2461C106.418 54.8359 106.834 54.3672 107.291 53.8398C107.748 53.3125 108.205 52.7734 108.662 52.2227C109.119 51.6719 109.482 51.1973 109.752 50.7988C109.963 50.4941 110.15 50.1895 110.314 49.8848C110.479 49.5684 110.619 49.2695 110.736 48.9883C110.865 48.707 110.971 48.4492 111.053 48.2148C111.135 47.9688 111.193 47.7637 111.229 47.5996L111.352 47.1602H117.398ZM122.883 47.1602H133.816L132.568 52.2227H124.623L122.654 60.1855L111.738 68.2012C112.266 67.6973 112.752 67.1816 113.197 66.6543C113.467 66.3496 113.684 66.0859 113.848 65.8633C114.012 65.6406 114.17 65.4062 114.322 65.1602C114.486 64.9141 114.633 64.668 114.762 64.4219C114.891 64.1641 114.99 63.9121 115.061 63.666L117.891 52.2227H112.178L127.541 40.9375C126.369 41.9922 125.379 42.9531 124.57 43.8203C124.078 44.3359 123.703 44.752 123.445 45.0684C123.199 45.3848 123 45.6895 122.848 45.9824C122.695 46.2637 122.607 46.5156 122.584 46.7383C122.572 46.9492 122.672 47.0898 122.883 47.1602Z" fill="#7C7C7C"/>
<path d="M29.7012 24.2129C29.1387 24.8105 28.6055 25.3906 28.1016 25.9531C27.8086 26.293 27.5625 26.5801 27.3633 26.8145C27.1641 27.0371 26.9648 27.2715 26.7656 27.5176C26.5664 27.752 26.373 27.9863 26.1855 28.2207C26.0098 28.4434 25.8574 28.6484 25.7285 28.8359C25.459 29.1992 25.2363 29.5684 25.0605 29.9434C24.8848 30.3184 24.7383 30.6641 24.6211 30.9805C24.4922 31.332 24.3926 31.6777 24.3223 32.0176H19.0664L29.7012 24.2129ZM15.7617 6.37109L3.79102 15.1602C3.88477 15.0547 4.11328 14.7969 4.47656 14.3867C4.83984 13.9766 5.25 13.5137 5.70703 12.998C6.16406 12.4707 6.62109 11.9375 7.07812 11.3984C7.53516 10.8477 7.89844 10.3789 8.16797 9.99219C8.44922 9.57031 8.68945 9.14844 8.88867 8.72656C9.09961 8.30469 9.26367 7.92383 9.38086 7.58398C9.5332 7.18555 9.65625 6.79883 9.75 6.42383L9.76758 6.37109H15.7617ZM13.248 34.8125C13.7637 34.332 14.1973 33.8984 14.5488 33.5117C14.7715 33.2773 14.9297 33.0898 15.0234 32.9492C15.1289 32.8086 15.2109 32.6738 15.2695 32.5449C15.3281 32.416 15.3516 32.2988 15.3398 32.1934C15.3398 32.0996 15.2871 32.0352 15.1816 32H3.49219L4.35352 28.5371L20.9473 11.3984H10.5938L25.834 0.201172C24.6738 1.23242 23.6895 2.18164 22.8809 3.04883C22.3887 3.55273 22.0195 3.96289 21.7734 4.2793C21.5273 4.5957 21.3281 4.89453 21.1758 5.17578C21.0234 5.45703 20.9355 5.70898 20.9121 5.93164C20.9004 6.14258 21 6.28906 21.2109 6.37109H30.5273L29.7012 9.74609L13.1777 26.9727H23.9531L13.248 34.8125ZM59.1797 1.80078L35.9941 18.834C36.3223 18.5996 36.6504 18.3301 36.9785 18.0254C37.3066 17.709 37.6172 17.3984 37.9102 17.0938C38.2031 16.7773 38.4609 16.4844 38.6836 16.2148C38.918 15.9453 39.0938 15.7285 39.2109 15.5645L44.9238 6.47656H44.9414L44.959 6.44141H47.3672C48.375 6.44141 49.418 6.31836 50.4961 6.07227C51.5859 5.82617 52.5703 5.45703 53.4492 4.96484C54.0703 4.63672 54.6914 4.30273 55.3125 3.96289C55.9453 3.61133 56.5195 3.28906 57.0352 2.99609C57.5625 2.70312 58.0137 2.45117 58.3887 2.24023C58.7754 2.0293 59.0391 1.88281 59.1797 1.80078ZM53.168 21.752C53.1914 21.9395 53.2266 22.1211 53.2734 22.2969C53.3203 22.4609 53.3906 22.6074 53.4844 22.7363C53.5781 22.8652 53.6953 22.9707 53.8359 23.0527C53.9766 23.123 54.1523 23.1582 54.3633 23.1582C54.6328 23.1582 54.9609 23.0879 55.3477 22.9473C55.7461 22.8066 56.2266 22.5664 56.7891 22.2266L44.6602 31.1211C45.0234 30.8281 45.3457 30.4824 45.627 30.084C45.9199 29.6738 46.166 29.2754 46.3652 28.8887C46.5762 28.502 46.7461 28.1562 46.875 27.8516C47.0039 27.5469 47.0918 27.3359 47.1387 27.2188H38.7188L36.0469 31.9121H28.9453L32.8301 25.7246C33.2051 25.0801 33.416 24.5879 33.4629 24.248C33.5215 23.8965 33.3867 23.7207 33.0586 23.7207C32.8594 23.7207 32.5254 23.8145 32.0566 24.002C31.5996 24.1895 31.1133 24.4062 30.5977 24.6523C30.082 24.8867 29.5957 25.127 29.1387 25.373C28.6699 25.6074 28.3301 25.7773 28.1191 25.8828L36.7324 19.5195L51.3926 8.76172L53.1504 21.5938L53.168 21.6641C53.168 21.7109 53.168 21.7402 53.168 21.752ZM41.5664 22.2266H46.7168L46.1191 14.2285L41.5664 22.2266ZM53.7129 25.7246L55.8047 24.1953C55.5938 24.4297 55.3711 24.6934 55.1367 24.9863C54.9141 25.2793 54.709 25.5898 54.5215 25.918C54.3457 26.2461 54.2051 26.5918 54.0996 26.9551C54.0059 27.3066 53.9824 27.6523 54.0293 27.9922C54.041 28.0508 54.0469 28.127 54.0469 28.2207L54.5566 31.9121H48.3516C48.1992 31.9355 47.8711 32.0059 47.3672 32.123C46.8633 32.2402 46.1953 32.4746 45.3633 32.8262C44.5312 33.1895 43.5352 33.6934 42.375 34.3379C41.2148 34.9941 39.9023 35.8613 38.4375 36.9395L47.332 30.4004V30.3828L53.7129 25.707V25.7246ZM84.3516 10.4141C84.9023 11.7734 84.9609 13.3086 84.5273 15.0195C84.1758 16.4609 83.584 17.709 82.752 18.7637C81.9199 19.8066 80.9297 20.668 79.7812 21.3477C78.6445 22.0273 77.4023 22.5312 76.0547 22.8594C74.707 23.1758 73.3418 23.334 71.959 23.334H70.3418C70.1777 23.334 69.9844 23.3516 69.7617 23.3867C69.5391 23.4219 69.3281 23.4805 69.1289 23.5625L59.4785 30.6289L62.2734 19.291C62.2734 19.1855 62.2266 19.0508 62.1328 18.8867C62.0508 18.7227 61.8516 18.6406 61.5352 18.6406C61.3945 18.6406 61.2246 18.6699 61.0254 18.7285C60.8379 18.7754 60.6094 18.8574 60.3398 18.9746C59.8125 19.2207 59.3145 19.4551 58.8457 19.6777C58.3887 19.8887 57.9844 20.0762 57.6328 20.2402C57.2227 20.4277 56.8477 20.6035 56.5078 20.7676L76.3711 6.17773C77.168 6.18945 77.9707 6.26562 78.7793 6.40625C79.5879 6.54688 80.3496 6.78125 81.0645 7.10938C81.791 7.4375 82.4414 7.87109 83.0156 8.41016C83.5898 8.94922 84.0352 9.61719 84.3516 10.4141ZM77.7246 14.9668C78.0059 13.8535 77.9121 12.9512 77.4434 12.2598C76.998 11.6035 76.2246 11.2637 75.123 11.2402H70.9922L69.2695 18.2539H73.2422C74.3672 18.2539 75.3223 17.9902 76.1074 17.4629C76.9043 16.9238 77.4434 16.0918 77.7246 14.9668ZM81.2754 1.32617L63.4863 14.3867L65.5254 6.17773H70.2715C70.5762 6.1543 70.9277 6.11328 71.3262 6.05469C71.7363 5.98438 72.1641 5.89063 72.6094 5.77344C73.0664 5.65625 73.5352 5.50977 74.0156 5.33398C74.5078 5.1582 74.9883 4.93555 75.457 4.66602C76.1719 4.2793 76.875 3.89258 77.5664 3.50586C78.2578 3.10742 78.8789 2.74414 79.4297 2.41602C80.0742 2.04102 80.6895 1.67773 81.2754 1.32617ZM52.4121 37.0625L67.3184 26.1289L65.8594 32H62.1152C61.8105 32.0469 61.4355 32.1523 60.9902 32.3164C60.5449 32.4922 60.0645 32.6973 59.5488 32.9316C59.0332 33.1777 58.5 33.4473 57.9492 33.7402C57.3984 34.0449 56.8594 34.3555 56.332 34.6719C55.0898 35.3867 53.7832 36.1836 52.4121 37.0625ZM110.719 10.4141C111.27 11.7734 111.328 13.3086 110.895 15.0195C110.543 16.4609 109.951 17.709 109.119 18.7637C108.287 19.8066 107.297 20.668 106.148 21.3477C105.012 22.0273 103.77 22.5312 102.422 22.8594C101.074 23.1758 99.709 23.334 98.3262 23.334H96.709C96.5449 23.334 96.3516 23.3516 96.1289 23.3867C95.9062 23.4219 95.6953 23.4805 95.4961 23.5625L85.8457 30.6289L88.6406 19.291C88.6406 19.1855 88.5938 19.0508 88.5 18.8867C88.418 18.7227 88.2188 18.6406 87.9023 18.6406C87.7617 18.6406 87.5918 18.6699 87.3926 18.7285C87.2051 18.7754 86.9766 18.8574 86.707 18.9746C86.1797 19.2207 85.6816 19.4551 85.2129 19.6777C84.7559 19.8887 84.3516 20.0762 84 20.2402C83.5898 20.4277 83.2148 20.6035 82.875 20.7676L102.738 6.17773C103.535 6.18945 104.338 6.26562 105.146 6.40625C105.955 6.54688 106.717 6.78125 107.432 7.10938C108.158 7.4375 108.809 7.87109 109.383 8.41016C109.957 8.94922 110.402 9.61719 110.719 10.4141ZM104.092 14.9668C104.373 13.8535 104.279 12.9512 103.811 12.2598C103.365 11.6035 102.592 11.2637 101.49 11.2402H97.3594L95.6367 18.2539H99.6094C100.734 18.2539 101.689 17.9902 102.475 17.4629C103.271 16.9238 103.811 16.0918 104.092 14.9668ZM107.643 1.32617L89.8535 14.3867L91.8926 6.17773H96.6387C96.9434 6.1543 97.2949 6.11328 97.6934 6.05469C98.1035 5.98438 98.5312 5.89063 98.9766 5.77344C99.4336 5.65625 99.9023 5.50977 100.383 5.33398C100.875 5.1582 101.355 4.93555 101.824 4.66602C102.539 4.2793 103.242 3.89258 103.934 3.50586C104.625 3.10742 105.246 2.74414 105.797 2.41602C106.441 2.04102 107.057 1.67773 107.643 1.32617ZM78.7793 37.0625L93.6855 26.1289L92.2266 32H88.4824C88.1777 32.0469 87.8027 32.1523 87.3574 32.3164C86.9121 32.4922 86.4316 32.6973 85.916 32.9316C85.4004 33.1777 84.8672 33.4473 84.3164 33.7402C83.7656 34.0449 83.2266 34.3555 82.6992 34.6719C81.457 35.3867 80.1504 36.1836 78.7793 37.0625ZM35.625 40.6094C34.3359 41.7109 33.1875 42.7773 32.1797 43.8086C31.5703 44.4062 31.084 44.916 30.7207 45.3379C30.3691 45.748 30.041 46.1641 29.7363 46.5859C29.4434 47.0078 29.1973 47.4238 28.998 47.834C28.8105 48.2324 28.7168 48.5898 28.7168 48.9062C28.7402 49 28.7637 49.0879 28.7871 49.1699C28.8105 49.252 28.834 49.334 28.8574 49.416C29.1387 50.5645 29.168 51.8535 28.9453 53.2832L28.9277 53.4238H22.2305C22.3594 52.8262 22.4238 52.2637 22.4238 51.7363C22.4355 51.209 22.3652 50.7812 22.2129 50.4531L35.625 40.6094ZM4.8457 63.2324L12.1758 57.8535C11.8359 59.1895 11.6309 60.3496 11.5605 61.334C11.502 62.3066 11.5723 63.0742 11.7715 63.6367C11.8887 63.9648 12.0527 64.2344 12.2637 64.4453C12.4863 64.6562 12.7324 64.8262 13.002 64.9551C13.2715 65.0723 13.5645 65.1543 13.8809 65.2012C14.1973 65.248 14.5137 65.2715 14.8301 65.2715C14.9121 65.2715 15.0117 65.2715 15.1289 65.2715C15.2578 65.2598 15.375 65.2539 15.4805 65.2539C15.5977 65.2422 15.6973 65.2363 15.7793 65.2363C15.873 65.2246 15.9316 65.2188 15.9551 65.2188C16.2129 65.1953 16.5586 65.1367 16.9922 65.043C17.4258 64.9492 17.8828 64.7559 18.3633 64.4629C18.8555 64.1582 19.3418 63.7188 19.8223 63.1445C20.3027 62.5703 20.7188 61.7852 21.0703 60.7891H21.9668C22.2129 60.7891 22.4648 60.7656 22.7227 60.7188C22.957 60.6836 23.2031 60.6309 23.4609 60.5605C23.7305 60.4902 24 60.3789 24.2695 60.2266C24.5391 60.0859 24.7969 59.9395 25.043 59.7871C25.3008 59.6348 25.5293 59.4941 25.7285 59.3652C25.9629 59.2129 26.1797 59.0664 26.3789 58.9258L11.0859 70.1406C9.22266 69.7656 7.75781 68.9863 6.69141 67.8027C5.63672 66.6191 5.02148 65.0957 4.8457 63.2324ZM12.5449 56.3418L0.328125 65.3242C0.761719 64.9375 1.23633 64.4395 1.75195 63.8301C2.25586 63.2207 2.74219 62.5586 3.21094 61.8438C3.69141 61.1289 4.13086 60.3906 4.5293 59.6289C4.93945 58.8555 5.25586 58.1113 5.47852 57.3965L5.70703 56.4648C6.12891 54.7305 6.76758 53.1074 7.62305 51.5957C8.47852 50.0723 9.51562 48.748 10.7344 47.623C11.9531 46.4863 13.3418 45.5957 14.9004 44.9512C16.459 44.2949 18.1641 43.9668 20.0156 43.9668C20.6016 43.9668 21.1934 43.9961 21.791 44.0547C22.3887 44.1133 22.9688 44.2188 23.5312 44.3711C24.1055 44.5234 24.6562 44.7285 25.1836 44.9863C25.7227 45.2324 26.2266 45.5488 26.6953 45.9355L17.2207 52.8965C17.3496 52.7793 17.5254 52.6152 17.748 52.4043C17.9824 52.1816 18.2227 51.9414 18.4688 51.6836C18.7266 51.4258 18.9727 51.1562 19.207 50.875C19.4414 50.5938 19.623 50.3359 19.752 50.1016C19.8809 49.8555 19.9395 49.6445 19.9277 49.4688C19.9277 49.293 19.8105 49.1758 19.5762 49.1172C19.459 49.1055 19.3359 49.0996 19.207 49.0996C19.0898 49.0879 18.9668 49.082 18.8379 49.082C17.8535 49.082 17.0098 49.2988 16.3066 49.7324C15.6152 50.1543 15.0293 50.7051 14.5488 51.3848C14.0684 52.0645 13.6758 52.8262 13.3711 53.6699C13.0664 54.502 12.8086 55.3223 12.5977 56.1309L12.5449 56.3418ZM8.97656 72.9707L29.8594 57.625C29.7773 57.707 29.625 57.8711 29.4023 58.1172C29.1914 58.3633 28.9512 58.6387 28.6816 58.9434C28.4238 59.2363 28.1602 59.541 27.8906 59.8574C27.6328 60.1621 27.4277 60.4258 27.2754 60.6484C27.1934 60.7891 27.1113 60.9414 27.0293 61.1055C26.959 61.2695 26.8887 61.4277 26.8184 61.5801C26.3965 62.9043 25.793 64.082 25.0078 65.1133C24.2344 66.1445 23.332 67.0293 22.3008 67.7676C21.2695 68.4941 20.1387 69.0742 18.9082 69.5078C17.6777 69.9297 16.4004 70.1992 15.0762 70.3164C14.3965 70.4805 13.6992 70.709 12.9844 71.002C12.2695 71.2949 11.6133 71.5879 11.0156 71.8809C10.3242 72.2207 9.64453 72.584 8.97656 72.9707ZM54.6797 46.252C56.168 47.6348 56.5957 49.5859 55.9629 52.1055C55.5176 53.9102 54.7734 55.3984 53.7305 56.5703C52.6875 57.7305 51.3105 58.6738 49.5996 59.4004L51.5156 65.9922V65.9746L52.6934 70H45.3457L42.9023 61.0176H39.7031L38.8945 64.252C38.9062 64.3223 38.9355 64.3984 38.9824 64.4805C39.041 64.5508 39.1582 64.5859 39.334 64.5859C39.4746 64.5859 39.668 64.5508 39.9141 64.4805C40.1602 64.3984 40.4824 64.2695 40.8809 64.0938C40.8691 64.0938 40.7461 64.1816 40.5117 64.3574C40.2773 64.5215 39.9727 64.7441 39.5977 65.0254C39.2227 65.3066 38.7891 65.623 38.2969 65.9746C37.8164 66.3262 37.3242 66.6836 36.8203 67.0469C35.6484 67.9141 34.3125 68.8984 32.8125 70H30.7559L33.7617 57.8184C33.75 57.7129 33.6973 57.584 33.6035 57.4316C33.5215 57.2676 33.3281 57.1855 33.0234 57.1855C32.8828 57.1855 32.7129 57.209 32.5137 57.2559C32.3145 57.3027 32.0801 57.3848 31.8105 57.502C31.2832 57.7363 30.7852 57.9648 30.3164 58.1875C29.8594 58.4102 29.4551 58.6035 29.1035 58.7676C28.7051 58.9668 28.3359 59.1602 27.9961 59.3477L34.5879 54.5137V54.4961L48.5977 44.2129C49.125 44.2363 49.6641 44.2832 50.2148 44.3535C50.7656 44.4238 51.3047 44.541 51.832 44.7051C52.3594 44.8574 52.8633 45.0625 53.3438 45.3203C53.8359 45.5664 54.2812 45.877 54.6797 46.252ZM49.1426 52.5801C49.4004 51.5254 49.3125 50.7109 48.8789 50.1367C48.457 49.5508 47.6719 49.2578 46.5234 49.2578H42.6211L40.9688 55.9375H44.7832C45.9199 55.9375 46.8574 55.6562 47.5957 55.0938C48.3457 54.5195 48.8613 53.6816 49.1426 52.5801ZM52.7285 39.9414L34.957 52.9844L37.1367 44.1953H42.6387C42.9434 44.1602 43.2891 44.1133 43.6758 44.0547C44.0742 43.9844 44.4902 43.8965 44.9238 43.791C45.3691 43.6738 45.8203 43.5332 46.2773 43.3691C46.7461 43.1934 47.2031 42.9883 47.6484 42.7539C48.1289 42.4844 48.6094 42.2148 49.0898 41.9453C49.582 41.6758 50.0508 41.418 50.4961 41.1719C50.9414 40.9258 51.3516 40.6973 51.7266 40.4863C52.1133 40.2754 52.4473 40.0938 52.7285 39.9414ZM27.3105 75.3262L38.1387 67.3457L37.5234 70.0176C36.7266 70.1816 35.8066 70.4863 34.7637 70.9316C33.8262 71.3301 32.7422 71.8691 31.5117 72.5488C30.293 73.2285 28.8926 74.1543 27.3105 75.3262ZM84.5273 39.8008L61.3418 56.834C61.6699 56.5996 61.998 56.3301 62.3262 56.0254C62.6543 55.709 62.9648 55.3984 63.2578 55.0938C63.5508 54.7773 63.8086 54.4844 64.0312 54.2148C64.2656 53.9453 64.4414 53.7285 64.5586 53.5645L70.2715 44.4766H70.2891L70.3066 44.4414H72.7148C73.7227 44.4414 74.7656 44.3184 75.8438 44.0723C76.9336 43.8262 77.918 43.457 78.7969 42.9648C79.418 42.6367 80.0391 42.3027 80.6602 41.9629C81.293 41.6113 81.8672 41.2891 82.3828 40.9961C82.9102 40.7031 83.3613 40.4512 83.7363 40.2402C84.123 40.0293 84.3867 39.8828 84.5273 39.8008ZM78.5156 59.752C78.5391 59.9395 78.5742 60.1211 78.6211 60.2969C78.668 60.4609 78.7383 60.6074 78.832 60.7363C78.9258 60.8652 79.043 60.9707 79.1836 61.0527C79.3242 61.123 79.5 61.1582 79.7109 61.1582C79.9805 61.1582 80.3086 61.0879 80.6953 60.9473C81.0938 60.8066 81.5742 60.5664 82.1367 60.2266L70.0078 69.1211C70.3711 68.8281 70.6934 68.4824 70.9746 68.084C71.2676 67.6738 71.5137 67.2754 71.7129 66.8887C71.9238 66.502 72.0938 66.1562 72.2227 65.8516C72.3516 65.5469 72.4395 65.3359 72.4863 65.2188H64.0664L61.3945 69.9121H54.293L58.1777 63.7246C58.5527 63.0801 58.7637 62.5879 58.8105 62.248C58.8691 61.8965 58.7344 61.7207 58.4062 61.7207C58.207 61.7207 57.873 61.8145 57.4043 62.002C56.9473 62.1895 56.4609 62.4062 55.9453 62.6523C55.4297 62.8867 54.9434 63.127 54.4863 63.373C54.0176 63.6074 53.6777 63.7773 53.4668 63.8828L62.0801 57.5195L76.7402 46.7617L78.498 59.5938L78.5156 59.6641C78.5156 59.7109 78.5156 59.7402 78.5156 59.752ZM66.9141 60.2266H72.0645L71.4668 52.2285L66.9141 60.2266ZM79.0605 63.7246L81.1523 62.1953C80.9414 62.4297 80.7188 62.6934 80.4844 62.9863C80.2617 63.2793 80.0566 63.5898 79.8691 63.918C79.6934 64.2461 79.5527 64.5918 79.4473 64.9551C79.3535 65.3066 79.3301 65.6523 79.377 65.9922C79.3887 66.0508 79.3945 66.127 79.3945 66.2207L79.9043 69.9121H73.6992C73.5469 69.9355 73.2188 70.0059 72.7148 70.123C72.2109 70.2402 71.543 70.4746 70.7109 70.8262C69.8789 71.1895 68.8828 71.6934 67.7227 72.3379C66.5625 72.9941 65.25 73.8613 63.7852 74.9395L72.6797 68.4004V68.3828L79.0605 63.707V63.7246ZM93.8262 52.9492L85.5996 58.9785L89.2383 44.2832H105.621L95.2676 51.877C95.7949 51.4082 96.2109 50.9922 96.5156 50.6289C96.7148 50.418 96.8496 50.248 96.9199 50.1191C97.002 49.9902 97.0488 49.873 97.0605 49.7676C97.0723 49.6621 97.043 49.5742 96.9727 49.5039C96.9023 49.4336 96.7676 49.3984 96.5684 49.3984C96.3926 49.3984 96.2578 49.3809 96.1641 49.3457H94.7227L93.8262 52.9492ZM79.4121 75.3965L90.2402 67.416L89.625 70.0879C88.8281 70.2637 87.9141 70.5684 86.8828 71.002C85.9336 71.4004 84.8438 71.9395 83.6133 72.6191C82.3945 73.3105 80.9941 74.2363 79.4121 75.3965ZM100.4 49.3457L111.316 41.3301C111.164 41.4473 110.877 41.6875 110.455 42.0508C110.033 42.4141 109.576 42.8652 109.084 43.4043C108.592 43.9316 108.111 44.5234 107.643 45.1797C107.174 45.8359 106.816 46.5156 106.57 47.2188L106.043 49.3457H100.4ZM93.457 54.4609L93.3516 54.8828H103.635L102.387 59.9629H92.0859L91.0137 64.3223C91.0137 64.4043 91.0371 64.4863 91.084 64.5684C91.1426 64.6387 91.2598 64.6738 91.4355 64.6738C91.5879 64.6738 91.7871 64.6387 92.0332 64.5684C92.2793 64.4863 92.5957 64.3516 92.9824 64.1641C92.9824 64.1641 92.8652 64.252 92.6309 64.4277C92.3965 64.6035 92.0859 64.832 91.6992 65.1133C91.3242 65.3828 90.8906 65.6992 90.3984 66.0625C89.918 66.4141 89.4258 66.7715 88.9219 67.1348C87.7383 68.002 86.3965 68.9863 84.8965 70.0879H82.8574L84.2109 64.6387C84.2109 64.5918 84.2168 64.5449 84.2285 64.498C84.2402 64.4395 84.252 64.3809 84.2637 64.3223C84.3809 63.8652 84.3574 63.5547 84.1934 63.3906C84.0293 63.2266 83.7891 63.1445 83.4727 63.1445C83.1914 63.1445 82.8691 63.1973 82.5059 63.3027C82.1309 63.4082 81.7793 63.5254 81.4512 63.6543C81.1113 63.7832 80.8184 63.9121 80.5723 64.041C80.3145 64.1699 80.1445 64.252 80.0625 64.2871L93.457 54.4609ZM113.988 65.0254L126.416 55.8848C125.865 56.4941 125.332 57.0859 124.816 57.6602C124.523 58 124.277 58.2871 124.078 58.5215C123.879 58.7441 123.68 58.9785 123.48 59.2246C123.281 59.459 123.088 59.6934 122.9 59.9277C122.725 60.1504 122.572 60.3555 122.443 60.543C122.092 61.0469 121.811 61.5508 121.6 62.0547C121.4 62.5469 121.254 62.9453 121.16 63.25L119.49 69.9824H112.758L113.988 65.0254ZM117.398 44.1602L105.34 53.0195C105.445 52.9141 105.68 52.6562 106.043 52.2461C106.418 51.8359 106.834 51.3672 107.291 50.8398C107.748 50.3125 108.205 49.7734 108.662 49.2227C109.119 48.6719 109.482 48.1973 109.752 47.7988C109.963 47.4941 110.15 47.1895 110.314 46.8848C110.479 46.5684 110.619 46.2695 110.736 45.9883C110.865 45.707 110.971 45.4492 111.053 45.2148C111.135 44.9688 111.193 44.7637 111.229 44.5996L111.352 44.1602H117.398ZM122.883 44.1602H133.816L132.568 49.2227H124.623L122.654 57.1855L111.738 65.2012C112.266 64.6973 112.752 64.1816 113.197 63.6543C113.467 63.3496 113.684 63.0859 113.848 62.8633C114.012 62.6406 114.17 62.4062 114.322 62.1602C114.486 61.9141 114.633 61.668 114.762 61.4219C114.891 61.1641 114.99 60.9121 115.061 60.666L117.891 49.2227H112.178L127.541 37.9375C126.369 38.9922 125.379 39.9531 124.57 40.8203C124.078 41.3359 123.703 41.752 123.445 42.0684C123.199 42.3848 123 42.6895 122.848 42.9824C122.695 43.2637 122.607 43.5156 122.584 43.7383C122.572 43.9492 122.672 44.0898 122.883 44.1602Z" fill="#006FF1"/>
</svg>
