<svg width="15" height="15" viewBox="0 0 15 15" fill="none" xmlns="http://www.w3.org/2000/svg">
<path d="M7.5 0C3.36433 0 0 3.36433 0 7.5C0 11.6357 3.36433 15 7.5 15C11.6357 15 15 11.6357 15 7.5C15 3.36433 11.6357 0 7.5 0ZM11.3013 5.91064L7.23873 9.97307C7.11685 10.0949 6.95686 10.1563 6.79688 10.1563C6.63689 10.1563 6.4769 10.0949 6.35502 9.97307L4.32381 7.94186C4.07936 7.69753 4.07936 7.30247 4.32381 7.05814C4.56814 6.8137 4.96307 6.8137 5.20752 7.05814L6.79688 8.6475L10.4176 5.02693C10.6619 4.78249 11.0568 4.78249 11.3013 5.02693C11.5456 5.27126 11.5456 5.6662 11.3013 5.91064Z" fill="#006FF1"/>
</svg>
