<svg width="11" height="10" viewBox="0 0 11 10" fill="none" xmlns="http://www.w3.org/2000/svg">
<path d="M0.618325 5.94413L0.601155 5.94002L7.96185 5.94002L5.64792 8.47822C5.53461 8.60214 5.47245 8.77 5.47245 8.94619C5.47245 9.12238 5.53461 9.28908 5.64792 9.41329L6.00797 9.80756C6.12119 9.93148 6.27206 10 6.43294 10C6.59392 10 6.74488 9.93197 6.8581 9.80805L10.8246 5.46705C10.9383 5.34264 11.0004 5.17692 11 5.00064C11.0004 4.82337 10.9383 4.65756 10.8246 4.53334L6.8581 0.191949C6.74488 0.0681272 6.59401 5.55588e-07 6.43294 5.41035e-07C6.27206 5.26499e-07 6.12119 0.0682245 6.00797 0.191948L5.64792 0.58622C5.53461 0.709944 5.47245 0.87517 5.47245 1.05136C5.47245 1.22745 5.53461 1.38397 5.64792 1.50779L7.98797 4.06018L0.610097 4.06018C0.278577 4.06018 -4.77683e-07 4.37291 -5.0836e-07 4.73557L-5.5553e-07 5.29321C-5.86207e-07 5.65586 0.286805 5.94413 0.618325 5.94413Z" fill="white"/>
</svg>
