<svg width="31" height="27" viewBox="0 0 31 27" fill="none" xmlns="http://www.w3.org/2000/svg">
<path d="M15.2857 2.54762C15.9892 2.54762 16.5595 1.97732 16.5595 1.27381C16.5595 0.570304 15.9892 0 15.2857 0C14.5822 0 14.0119 0.570304 14.0119 1.27381C14.0119 1.97732 14.5822 2.54762 15.2857 2.54762Z" fill="white"/>
<path d="M29.2976 8.91667C30.0011 8.91667 30.5714 8.34636 30.5714 7.64286C30.5714 6.93935 30.0011 6.36905 29.2976 6.36905C28.5941 6.36905 28.0238 6.93935 28.0238 7.64286C28.0238 8.34636 28.5941 8.91667 29.2976 8.91667Z" fill="white"/>
<path d="M1.27381 8.91667C1.97732 8.91667 2.54762 8.34636 2.54762 7.64286C2.54762 6.93935 1.97732 6.36905 1.27381 6.36905C0.570304 6.36905 0 6.93935 0 7.64286C0 8.34636 0.570304 8.91667 1.27381 8.91667Z" fill="white"/>
<path d="M3.79036 21.6548H26.7818L29.2674 10.4667C29.3225 10.2185 29.3021 9.95951 29.2088 9.723C29.1155 9.48648 28.9535 9.2833 28.7438 9.1396C28.534 8.9959 28.2861 8.91826 28.0318 8.91667C27.7776 8.91508 27.5287 8.98961 27.3172 9.13067L20.8745 13.4253L16.425 4.52553C16.3192 4.31398 16.1565 4.13606 15.9553 4.01172C15.7541 3.88738 15.5222 3.82152 15.2857 3.82152C15.0492 3.82152 14.8173 3.88738 14.6161 4.01172C14.4149 4.13606 14.2522 4.31398 14.1464 4.52553L9.69685 13.4253L3.25408 9.13067C3.04255 8.98966 2.79366 8.91518 2.53944 8.9168C2.28522 8.91842 2.0373 8.99607 1.82758 9.13976C1.61786 9.28345 1.45593 9.4866 1.36263 9.72309C1.26933 9.95957 1.24892 10.2186 1.30404 10.4667L3.79036 21.6548Z" fill="white"/>
<path d="M3.82141 22.9286V25.4762C3.82141 25.814 3.95562 26.138 4.1945 26.3769C4.43339 26.6158 4.75739 26.75 5.09522 26.75H25.4762C25.814 26.75 26.138 26.6158 26.3769 26.3769C26.6158 26.138 26.75 25.814 26.75 25.4762V22.9286H3.82141Z" fill="white"/>
</svg>
