<svg width="29" height="29" viewBox="0 0 29 29" fill="none" xmlns="http://www.w3.org/2000/svg">
<path d="M0.849605 28.9998H16.2558C16.7251 28.9998 17.1054 28.6195 17.1054 28.1502V27.244C17.1054 26.3054 16.3447 25.5448 15.4062 25.5448V24.529C15.4062 23.184 14.3119 22.0897 12.9669 22.0897H4.13851C2.79352 22.0897 1.69921 23.184 1.69921 24.529V25.5448C0.760662 25.5448 0 26.3054 0 27.244V28.1502C0 28.6193 0.380552 28.9998 0.849605 28.9998Z" fill="white"/>
<path d="M10.6334 18.7108C11.198 19.4602 12.2636 19.61 13.0129 19.0451C13.7625 18.4805 13.9121 17.4149 13.3475 16.6653L8.23436 9.88022C7.66951 9.13062 6.60418 8.98106 5.85481 9.54569C5.10521 10.1105 4.95542 11.1759 5.52027 11.9255L10.6334 18.7108Z" fill="white"/>
<path d="M22.8466 9.50719C23.4114 10.2566 24.4767 10.4064 25.2263 9.8415C25.9757 9.27687 26.1255 8.21154 25.5607 7.46194L20.4475 0.676827C19.8829 -0.0727721 18.8174 -0.222559 18.068 0.342295C17.3186 0.90715 17.1688 1.97248 17.7337 2.72207L22.8466 9.50719Z" fill="white"/>
<path d="M19.1197 14.4433C20.3755 13.497 21.3182 12.3219 21.9079 11.0847L15.9584 3.18958C14.6066 3.41547 13.2173 3.99758 11.9613 4.9441C10.7055 5.89039 9.76273 7.06546 9.1731 8.30247L15.1225 16.198C16.4744 15.9721 17.8636 15.3898 19.1197 14.4433Z" fill="white"/>
<path d="M21.4138 14.6646C21.0182 15.0677 20.6016 15.4542 20.1423 15.8005C19.6827 16.1465 19.1962 16.4405 18.7 16.7098L19.8078 18.18L22.5218 16.135L21.4138 14.6646Z" fill="white"/>
<path d="M23.5445 17.4919L20.8304 19.537L25.9435 26.3223C26.5084 27.0719 27.5737 27.2215 28.3231 26.6568C29.0727 26.092 29.2222 25.0267 28.6576 24.2771L23.5445 17.4919Z" fill="white"/>
</svg>
