<svg width="33" height="33" viewBox="0 0 33 33" fill="none" xmlns="http://www.w3.org/2000/svg">
<path d="M12.6328 33C15.4844 33 17.6921 32.7271 19.4631 32.1692C19.4256 31.9677 19.4004 31.7618 19.4004 31.5498C19.4004 30.6026 19.7942 29.7476 20.4236 29.1328C19.7942 28.518 19.4004 27.663 19.4004 26.7158C19.4004 25.7687 19.7942 24.9137 20.4236 24.2988C19.7942 23.684 19.4004 22.829 19.4004 21.8818C19.4004 20.9347 19.7942 20.0797 20.4236 19.4648C19.7942 18.85 19.4004 17.995 19.4004 17.0479C19.4004 15.929 19.9528 14.9428 20.7924 14.3265C20.2174 13.8 19.6031 13.3282 18.9585 12.913C19.2204 12.5832 19.4004 12.1842 19.4004 11.7305C19.4004 10.6625 18.5348 9.79688 17.4668 9.79688H7.79883C6.73082 9.79688 5.86523 10.6625 5.86523 11.7305C5.86523 12.1832 6.04475 12.5809 6.30508 12.9103C2.55169 15.3283 0 19.7068 0 24.2988C0 32.0984 7.23713 33 12.6328 33ZM12.6225 23.6153C11.023 23.6153 9.7221 22.3144 9.7221 20.7149C9.7221 19.4523 10.5378 18.387 11.666 17.9895V16.5645C11.666 16.0302 12.0986 15.5977 12.6328 15.5977C13.1671 15.5977 13.5996 16.0302 13.5996 16.5645V17.996C14.7172 18.3991 15.5229 19.4601 15.5229 20.7149C15.5229 21.2494 15.0903 21.6817 14.5561 21.6817C14.0216 21.6817 13.5893 21.2494 13.5893 20.7149C13.5893 20.1814 13.1557 19.7481 12.6225 19.7481C12.089 19.7481 11.6557 20.1814 11.6557 20.7149C11.6557 21.2484 12.089 21.6817 12.6225 21.6817C14.2217 21.6817 15.5229 22.9828 15.5229 24.5821C15.5229 25.8369 14.7172 26.8979 13.5996 27.3012V28.166C13.5996 28.7003 13.1671 29.1328 12.6328 29.1328C12.0986 29.1328 11.666 28.7003 11.666 28.166V27.3075C10.5378 26.9102 9.7221 25.8447 9.7221 24.5821C9.7221 24.0478 10.1544 23.6153 10.6889 23.6153C11.2232 23.6153 11.6557 24.0478 11.6557 24.5821C11.6557 25.1156 12.089 25.5489 12.6225 25.5489C13.1557 25.5489 13.5893 25.1156 13.5893 24.5821C13.5893 24.0486 13.1557 23.6153 12.6225 23.6153Z" fill="white"/>
<path d="M31.5498 30.0996H22.7842C21.9833 30.0996 21.334 30.7489 21.334 31.5498C21.334 32.3507 21.9833 33 22.7842 33H31.5498C32.3507 33 33 32.3507 33 31.5498C33 30.7489 32.3507 30.0996 31.5498 30.0996Z" fill="white"/>
<path d="M31.5498 25.2656H22.7842C21.9833 25.2656 21.334 25.9149 21.334 26.7158C21.334 27.5167 21.9833 28.166 22.7842 28.166H31.5498C32.3507 28.166 33 27.5167 33 26.7158C33 25.9149 32.3507 25.2656 31.5498 25.2656Z" fill="white"/>
<path d="M31.5498 20.4316H22.7842C21.9833 20.4316 21.334 21.081 21.334 21.8818C21.334 22.6827 21.9833 23.332 22.7842 23.332H31.5498C32.3507 23.332 33 22.6827 33 21.8818C33 21.081 32.3507 20.4316 31.5498 20.4316Z" fill="white"/>
<path d="M31.5498 15.5977H22.7842C21.9833 15.5977 21.334 16.247 21.334 17.0479C21.334 17.8487 21.9833 18.498 22.7842 18.498H31.5498C32.3507 18.498 33 17.8487 33 17.0479C33 16.247 32.3507 15.5977 31.5498 15.5977Z" fill="white"/>
<path d="M15.3552 1.93359C14.9547 0.810699 13.8917 0 12.6328 0C11.3725 0 10.2972 0.808182 9.8976 1.93359H6.83205C6.52136 1.93359 6.22956 2.08264 6.04753 2.33492C5.86626 2.58694 5.81615 2.91172 5.91535 3.20629L7.42471 7.86328H17.8412L19.3503 3.20629C19.4495 2.91172 19.3994 2.58694 19.2181 2.33492C19.0361 2.08264 18.7443 1.93359 18.4336 1.93359H15.3552Z" fill="white"/>
</svg>
