<svg width="17" height="17" viewBox="0 0 17 17" fill="none" xmlns="http://www.w3.org/2000/svg">
<path d="M8.5 0C3.81291 0 0 3.81291 0 8.5C0 13.1871 3.81291 17 8.5 17C13.1871 17 17 13.1871 17 8.5C17 3.81291 13.1871 0 8.5 0ZM8.5 13.4583C8.10896 13.4583 7.79171 13.141 7.79171 12.75C7.79171 12.359 8.10896 12.0417 8.5 12.0417C8.89104 12.0417 9.20829 12.359 9.20829 12.75C9.20829 13.141 8.89104 13.4583 8.5 13.4583ZM9.62125 8.95473C9.37054 9.07016 9.20829 9.32307 9.20829 9.59869V9.91671C9.20829 10.3076 8.89169 10.625 8.5 10.625C8.10831 10.625 7.79171 10.3076 7.79171 9.91671V9.59869C7.79171 8.77198 8.27757 8.01414 9.02775 7.66772C9.74953 7.33556 10.2708 6.4536 10.2708 6.02079C10.2708 5.0448 9.47677 4.25 8.5 4.25C7.52323 4.25 6.72921 5.0448 6.72921 6.02079C6.72921 6.41183 6.41248 6.72921 6.02079 6.72921C5.6291 6.72921 5.3125 6.41183 5.3125 6.02079C5.3125 4.26349 6.74257 2.83329 8.5 2.83329C10.2574 2.83329 11.6875 4.26349 11.6875 6.02079C11.6875 6.97784 10.8573 8.38457 9.62125 8.95473Z" fill="#888888"/>
</svg>
